<svg xmlns="http://www.w3.org/2000/svg" width="1024" height="1024" viewBox="0 0 1024 1024">
<g transform="translate(174.07999999999998 214.07999999999998) scale(0.66)" fill="#000">
<path d="M 176 664 C 160 500 236 352 410 322 C 470 310 548 306 630 340 C 700 370 760 420 830 470 C 880 486 930 500 952 530 C 968 552 964 596 944 648 L 930 670 Z M 450 404 a 124 124 0 1 0 248 0 a 124 124 0 1 0 -248 0 Z" fill-rule="evenodd"/>
<ellipse cx="588" cy="404" rx="30" ry="96"/>
<path d="M 60 734 q 90 -30 180 0 t 180 0 t 180 0 t 180 0 t 180 0" fill="none" stroke="#000" stroke-width="44" stroke-linecap="round"/>
</g>
</svg>
